<svg version="1.1" id="Layer_1" xmlns="http://www.w3.org/2000/svg" xmlns:xlink="http://www.w3.org/1999/xlink" x="0px" y="0px"
	 width="100%" viewBox="0 0 1024 672" enable-background="new 0 0 1024 672" xml:space="preserve">
<path fill="#000000" opacity="1.000000" stroke="none" 
	d="
M444.807373,237.825394 
	C437.849335,242.848145 432.124786,248.650436 427.001953,255.039398 
	C423.369080,259.570190 423.366302,265.332977 422.419098,270.657867 
	C417.524902,298.171753 417.970642,325.616333 424.135864,352.922028 
	C424.355286,353.893890 424.465485,354.894318 424.565094,355.887573 
	C424.612274,356.358185 424.514160,356.843353 424.373840,358.921844 
	C417.342377,351.323090 407.560974,348.277008 404.805756,337.782227 
	C392.128540,289.494171 399.499390,244.022476 424.152374,201.129669 
	C439.265381,174.835159 459.023956,152.548538 483.237823,134.093353 
	C491.571655,127.741501 498.646179,127.238121 507.543304,132.874557 
	C525.186707,144.051880 540.894287,157.237701 553.626892,173.791229 
	C556.249695,177.201187 558.915894,178.100143 562.976868,177.491608 
	C590.582581,173.355072 618.321167,172.755539 646.158630,174.487549 
	C655.096619,175.043671 664.028931,175.394135 674.005310,177.004486 
	C669.669922,181.584595 664.729004,183.757263 660.955444,187.270737 
	C656.537170,191.384399 651.711060,190.485092 646.497986,189.787857 
	C621.109497,186.392242 595.719910,186.527863 570.387756,190.498291 
	C569.135071,190.694626 567.708740,190.799255 566.854431,192.075424 
	C566.646118,193.516327 567.477661,194.623611 568.083069,195.776382 
	C580.899475,220.181503 587.024902,246.341461 589.449585,273.670105 
	C595.443787,341.230804 584.281250,405.942566 558.523010,468.451294 
	C551.412842,485.705963 544.248352,502.910675 535.817871,519.565002 
	C535.016052,521.148987 534.598206,523.049011 532.848083,524.045044 
	C531.155212,523.778870 530.943176,522.311035 530.487671,521.143860 
	C525.645081,508.735718 520.872559,496.300049 515.995605,483.905487 
	C514.924316,481.182800 515.316101,478.965759 516.784729,476.411652 
	C538.256348,439.069580 554.612427,399.717621 563.121277,357.326172 
	C566.235657,341.810333 567.808472,326.111969 568.747437,310.326904 
	C569.707397,294.189941 570.234131,278.076843 568.723389,261.935883 
	C566.672729,240.025970 561.599915,218.958878 551.768066,199.172699 
	C550.629272,196.880936 549.836365,194.277145 546.010681,195.119858 
	C528.628235,198.948807 511.075836,202.041397 494.325378,208.372650 
	C476.181610,215.230530 460.448792,226.090546 444.807373,237.825394 
M476.231567,155.694641 
	C455.902893,182.391373 439.098633,210.947281 429.681641,243.496155 
	C458.520386,208.390152 497.405060,191.225235 540.104431,181.242386 
	C538.986389,173.050171 508.529694,140.278137 495.328217,131.882172 
	C489.133759,139.601578 482.902344,147.366989 476.231567,155.694641 
z"/>
</svg>